<?xml version="1.0" encoding="UTF-8"?>
<svg xmlns="http://www.w3.org/2000/svg" xmlns:xlink="http://www.w3.org/1999/xlink" xmlns:svgjs="http://svgjs.com/svgjs" version="1.1" width="512" height="512" x="0" y="0" viewBox="0 0 512 512" style="enable-background:new 0 0 512 512" xml:space="preserve" class="">
  <g transform="matrix(1,0,0,1,0,0)">
    <circle xmlns="http://www.w3.org/2000/svg" cx="256" cy="256" fill="#fff5d7" r="256" data-original="#fff5d7" class=""/>
    <path xmlns="http://www.w3.org/2000/svg" d="m256 20.645c-119.785 0-220.907 91.349-233.873 209.495-.506 4.612 3.04 8.716 7.666 9.056l8.233.605c4.471.328 8.284-2.989 8.783-7.444 11.824-105.463 102.183-186.938 209.191-186.938s197.367 81.475 209.191 186.938c.499 4.455 4.312 7.772 8.783 7.444l8.233-.605c4.627-.34 8.172-4.444 7.666-9.056-12.966-118.146-114.088-209.495-233.873-209.495z" fill="#020202" data-original="#6f6571" class=""/>
    <path xmlns="http://www.w3.org/2000/svg" d="m465.194 279.634c-4.162 37.336-18.106 72.514-40.68 102.601-2.689 3.583-2.182 8.604 1.297 11.426l6.41 5.198c3.606 2.924 9.005 2.364 11.799-1.343 25.529-33.869 41.258-73.542 45.855-115.652.504-4.615-3.046-8.72-7.675-9.06l-8.233-.605c-4.468-.328-8.276 2.983-8.773 7.435z" fill="#e70f19" data-original="#e5646e" class=""/>
    <path xmlns="http://www.w3.org/2000/svg" d="m391.344 417.299c-31.707 26.612-70.952 43.432-111.997 47.999-4.337.483-7.612 4.113-7.456 8.474l.297 8.272c3.607 3.185 5.423 4.788 9.03 7.973 46.381-4.988 90.748-23.969 126.479-54.106 3.546-2.991 3.8-8.402.683-11.837l-5.542-6.108c-3.014-3.32-8.06-3.549-11.494-.667z" fill="#0539e5" data-original="#6987eb" class=""/>
    <path xmlns="http://www.w3.org/2000/svg" d="m38.045 272.199-8.259.604c-4.624.338-8.167 4.434-7.66 9.043 11.983 108.933 99.69 196.483 208.659 208.172 3.604-3.181 5.422-4.785 9.026-7.965l.298-8.299c.156-4.353-3.118-7.973-7.448-8.453-96.975-10.757-174.961-88.692-185.853-185.672-.5-4.447-4.3-7.756-8.763-7.43z" fill="#ebbc26" data-original="#ffe07d" class=""/>
    <path xmlns="http://www.w3.org/2000/svg" d="m162.636 277.136 30.525-93.939-32.031-42.809h-36.194c-24.615 32.026-47.769 72.096-47.769 115.612 0 1.757.085 3.493.133 5.239l50.649 26.676z" fill="#e70f19" data-original="#ff8086" class=""/>
    <path xmlns="http://www.w3.org/2000/svg" d="m247.742 351.047-80.076-58.177-32.237 10.019-18.095 53.444c24.438 36.745 43.678 54.944 87 67.667l43.409-31.227v-41.726z" fill="#e70f19" data-original="#ff8086" class=""/>
    <path xmlns="http://www.w3.org/2000/svg" d="m255.403 420.125-31.685 23.023c10.497 1.798 21.271 2.788 32.282 2.788 10.675 0 21.131-.924 31.326-2.617z" fill="#e70f19" data-original="#e5646e" class=""/>
    <path xmlns="http://www.w3.org/2000/svg" d="m425.305 342.054c9.178-18.02 15.585-37.68 18.61-58.45l-30.778 22.117z" fill="#e70f19" data-original="#ff8086" class=""/>
    <path xmlns="http://www.w3.org/2000/svg" d="m396.884 309.202-52.55-16.331-80.076 58.177v45.809l44.075 31.81c41.702-12.033 77.875-29.018 102.472-62.702 1.173-1.606 2.319-3.25 3.439-4.933z" fill="#e70f19" data-original="#ff8086" class=""/>
    <path xmlns="http://www.w3.org/2000/svg" d="m68.014 283.042c2.992 20.978 9.422 40.834 18.683 59.017l12.19-36.394z" fill="#e70f19" data-original="#e5646e" class=""/>
    <g xmlns="http://www.w3.org/2000/svg" fill="#ff8086">
      <path d="m159.21 123.871 11.903-37.774c-8.744 4.378-17.101 9.408-25.009 15.029-9.514 6.763-18.666 20.311-18.666 20.311l5.011 2.433h26.761z" fill="#e70f19" data-original="#ff8086" class=""/>
      <path d="m333.121 280.601-29.46-90.666h-95.322l-29.46 90.666 77.121 56.032z" fill="#e70f19" data-original="#ff8086" class=""/>
      <path d="m174.418 130.575 32.057 42.845h99.068l32.277-42.859-16.805-53.07c-20.284-7.389-42.177-11.426-65.015-11.426-22.772 0-44.602 4.018-64.835 11.366z" fill="#e70f19" data-original="#ff8086" class=""/>
      <path d="m318.844 183.211 30.521 93.924 52.528 16.325 43.894-31.543c.06-1.97.149-3.933.149-5.917 0-43.516-14.667-83.586-39.282-115.613h-55.558z" fill="#e70f19" data-original="#ff8086" class=""/>
      <path d="m353.024 123.871h39.355c-14.786-15.26-32.103-28.036-51.284-37.668z" fill="#e70f19" data-original="#ff8086" class=""/>
    </g>
    <path xmlns="http://www.w3.org/2000/svg" d="m135.428 302.889-20.312 6.313-17.359 51.83c24.438 36.745 61.33 64.462 104.651 77.185l45.334-32.939v-12.505c-48.152-14.166-88.341-46.87-112.314-89.884z" fill="#e70f19" data-original="#e5646e" class=""/>
    <path xmlns="http://www.w3.org/2000/svg" d="m111.484 210.581c0-24.804 4.804-48.472 13.452-70.194h-19.589c-24.615 32.027-39.282 72.097-39.282 115.613 0 1.757.085 3.493.133 5.239l43.953 32.208 17.798-5.531c-10.551-23.63-16.465-49.785-16.465-77.335z" fill="#e70f19" data-original="#e5646e" class=""/>
    <path xmlns="http://www.w3.org/2000/svg" d="m146.106 101.129c-9.527 6.769-18.372 14.369-26.485 22.742h12.828c4.063-7.901 8.567-15.532 13.657-22.742z" fill="#e70f19" data-original="#e5646e" class=""/>
    <path xmlns="http://www.w3.org/2000/svg" d="m301.419 400.516c-12.721 0-25.141-1.275-37.161-3.659v9.287l44.479 32.315c41.718-12.038 77.505-37.979 102.068-72.495-30.912 21.793-68.689 34.552-109.386 34.552z" fill="#e70f19" data-original="#e5646e" class=""/>
  </g>
</svg>
